<svg width="43" height="43" viewBox="0 0 43 43" fill="none" xmlns="http://www.w3.org/2000/svg">
<circle cx="21.5" cy="21.5" r="21.5" fill="url(#paint0_linear)"/>
<path d="M21.371 31.001H22.843V29.138C26.201 28.908 28.041 26.723 28.041 24.377C28.041 20.973 25.235 20.352 22.843 19.731V15.384C23.74 15.66 24.292 16.35 24.384 17.247H27.857C27.65 14.51 25.718 12.969 22.843 12.739V10.876H21.371V12.739C18.381 12.969 16.219 14.74 16.219 17.454C16.219 20.858 19.002 21.525 21.371 22.123V26.516C20.313 26.286 19.761 25.573 19.669 24.515H16.219C16.288 27.275 18.404 28.862 21.371 29.115V31.001ZM24.706 24.515C24.706 25.55 24.016 26.355 22.843 26.562V22.537C23.924 22.905 24.706 23.434 24.706 24.515ZM19.577 17.293C19.577 16.12 20.313 15.476 21.371 15.315V19.294C20.313 18.926 19.577 18.374 19.577 17.293Z" fill="white"/>
<defs>
<linearGradient id="paint0_linear" x1="21.5" y1="0" x2="21.5" y2="43" gradientUnits="userSpaceOnUse">
<stop stop-color="#298BFF"/>
<stop offset="1" stop-color="#0074FF"/>
</linearGradient>
</defs>
</svg>
