<svg width="15" height="11" viewBox="0 0 15 11" fill="none" xmlns="http://www.w3.org/2000/svg">
<path fill-rule="evenodd" clip-rule="evenodd" d="M13.7114 0.380706C13.4155 0.0848495 12.9359 0.0848495 12.64 0.380706L5.12755 7.89315L1.91617 4.68179C1.62032 4.38596 1.14065 4.38596 0.844795 4.68179L0.308318 5.2183C0.0124618 5.51414 0.0124618 5.99383 0.308318 6.28967L4.0608 10.0422C4.10768 10.0891 4.15688 10.1322 4.20802 10.1716L4.60072 10.5644C4.89658 10.8602 5.37624 10.8602 5.67213 10.5644L6.09887 10.1376C6.13486 10.1077 6.16978 10.0759 6.20357 10.0422L6.74001 9.50565L6.73539 9.50103L14.2479 1.98856C14.5437 1.69271 14.5437 1.21304 14.2479 0.91719L13.7114 0.380706Z" fill="white"/>
</svg>
