<svg width="25" height="25" viewBox="0 0 25 25" fill="none" xmlns="http://www.w3.org/2000/svg">
<circle cx="12.5" cy="12.5" r="12.5" fill="#00FFC2"/>
<path fill-rule="evenodd" clip-rule="evenodd" d="M18.7115 8.38071C18.4156 8.08485 17.936 8.08485 17.6401 8.38071L10.1276 15.8932L6.91624 12.6818C6.62039 12.386 6.14072 12.386 5.84486 12.6818L5.30839 13.2183C5.01253 13.5141 5.01253 13.9938 5.30839 14.2897L9.06086 18.0422C9.10775 18.0891 9.15695 18.1322 9.20809 18.1716L9.60079 18.5644C9.89664 18.8602 10.3763 18.8602 10.6722 18.5644L11.0989 18.1376C11.1349 18.1077 11.1698 18.0759 11.2036 18.0422L11.7401 17.5057L11.7355 17.501L19.248 9.98856C19.5438 9.69271 19.5438 9.21304 19.248 8.91719L18.7115 8.38071Z" fill="white"/>
</svg>
