<svg width="43" height="43" viewBox="0 0 43 43" fill="none" xmlns="http://www.w3.org/2000/svg">
<circle cx="21.5" cy="21.5" r="21.5" fill="url(#paint0_linear)"/>
<path fill-rule="evenodd" clip-rule="evenodd" d="M21.1598 25.1601L24.3962 26.7107C22.8284 28.2239 19.7932 30.6972 16.7058 27.9978C16.5582 28.1808 16.4121 28.3652 16.2677 28.5509L14.6311 30.6552C14.4112 30.9378 13.9933 30.9639 13.7401 30.7106C13.5278 30.4983 13.5068 30.1611 13.6911 29.9241L15.4192 27.7024C15.5669 27.5125 15.7163 27.324 15.8673 27.1369C13.5568 24.3767 15.0585 22.0658 16.7923 20.2028L16.8564 22.9092C16.8621 23.148 17.2062 23.1776 17.2526 22.9432L18.045 18.9374C20.5309 16.6552 28.4906 11.52 31.2132 14.2426C32.0592 15.0886 31.9563 16.3774 31.3586 17.8063L27.1613 18.6069C26.9505 18.6471 26.9424 18.946 27.1508 18.9975L30.3027 19.7768C28.8859 22.0069 26.8178 24.2481 25.6103 25.4925L21.2785 24.7824C21.0504 24.745 20.9512 25.0602 21.1598 25.1601ZM28.6593 15.0384C28.4719 14.8511 28.1708 14.8427 27.9734 15.0194L21.6078 20.7149L16.6147 26.3738C16.4404 26.5714 16.4497 26.8705 16.636 27.0568C16.8396 27.2603 17.1726 27.2499 17.3631 27.0341L22.3149 21.422L28.6392 15.7635C28.8527 15.5724 28.8619 15.2411 28.6593 15.0384Z" fill="white"/>
<defs>
<linearGradient id="paint0_linear" x1="21.5" y1="0" x2="21.5" y2="43" gradientUnits="userSpaceOnUse">
<stop stop-color="#298BFF"/>
<stop offset="1" stop-color="#0074FF"/>
</linearGradient>
</defs>
</svg>
