<svg width="43" height="43" viewBox="0 0 43 43" fill="none" xmlns="http://www.w3.org/2000/svg">
<circle cx="21.5" cy="21.5" r="21.5" fill="url(#paint0_linear)"/>
<path fill-rule="evenodd" clip-rule="evenodd" d="M19 14C19 13.4477 19.4477 13 20 13H22C22.5523 13 23 13.4477 23 14V30C23 30.5523 22.5523 31 22 31H20C19.4477 31 19 30.5523 19 30V14ZM13 22C13 21.4477 13.4477 21 14 21H16C16.5523 21 17 21.4477 17 22V30C17 30.5523 16.5523 31 16 31H14C13.4477 31 13 30.5523 13 30V22ZM26 16C25.4477 16 25 16.4477 25 17V30C25 30.5523 25.4477 31 26 31H28C28.5523 31 29 30.5523 29 30V17C29 16.4477 28.5523 16 28 16H26Z" fill="white"/>
<defs>
<linearGradient id="paint0_linear" x1="21.5" y1="0" x2="21.5" y2="43" gradientUnits="userSpaceOnUse">
<stop stop-color="#298BFF"/>
<stop offset="1" stop-color="#0074FF"/>
</linearGradient>
</defs>
</svg>
