<svg width="127" height="45" viewBox="0 0 127 45" fill="none" xmlns="http://www.w3.org/2000/svg">
<path d="M56.136 27.8549L57.6045 24.2072C58.8795 25.0344 60.5799 25.5645 62.068 25.5645C63.3627 25.5645 63.826 25.2676 63.826 24.7588C63.826 22.8923 56.3484 24.3983 56.3484 18.8628C56.3484 16.1058 58.4543 13.8578 62.6476 13.8578C64.4639 13.8578 66.3381 14.2821 67.749 15.1513L66.3771 18.778C65.0438 18.0357 63.7878 17.6752 62.6093 17.6752C61.2761 17.6752 60.8513 18.0995 60.8513 18.6083C60.8513 20.3899 68.3289 18.9053 68.3289 24.3769C68.3289 27.0916 66.2226 29.3819 62.0297 29.3819C59.7687 29.3819 57.4886 28.7669 56.136 27.8549Z" fill="#298BFF"/>
<path d="M81.352 24.3556H74.0096C74.3188 25.2462 75.0529 25.7129 76.1352 25.7129C77.1012 25.7129 77.6422 25.4373 78.3376 24.8647L80.6177 27.3886C79.5933 28.6186 78.1056 29.2546 75.9993 29.2546C72.1157 29.2546 69.6036 26.6883 69.6036 23.2318C69.6036 19.7114 72.1733 17.2299 75.5935 17.2299C78.7238 17.2299 81.4096 19.3085 81.4096 23.2318C81.41 23.5708 81.3713 24.0161 81.352 24.3556ZM73.9323 22.0438H77.3329C77.1592 21.0683 76.5217 20.4957 75.6325 20.4957C74.7243 20.4957 74.1061 21.0683 73.9323 22.0438Z" fill="#298BFF"/>
<path d="M83.4005 13.3063H87.7674V29.0426H83.4005V13.3063Z" fill="#298BFF"/>
<path d="M90.3181 13.3063H94.6848V29.0426H90.3181V13.3063Z" fill="#298BFF"/>
<path d="M96.7907 14.0696C96.7907 12.6913 97.8151 11.6306 99.4187 11.6306C101.022 11.6306 102.046 12.6061 102.046 13.9848C102.046 15.448 101.022 16.5087 99.4187 16.5087C97.8151 16.5087 96.7907 15.4483 96.7907 14.0696ZM97.2351 17.4417H101.602V29.0425H97.2351V17.4417Z" fill="#298BFF"/>
<path d="M108.867 18.0781H111.167V21.5775H109.003V29.0425H104.636V21.5775H103.186V18.0781H104.636V18.0146C104.636 15.0244 106.336 13.0945 109.35 13.0945C110.278 13.0945 111.302 13.2853 111.939 13.6671L110.896 16.9967C110.607 16.8484 110.259 16.7211 109.911 16.7211C109.293 16.7211 108.868 17.124 108.868 18.0574V18.0781H108.867Z" fill="#298BFF"/>
<path d="M124.962 17.4417L120.615 29.2757C119.456 32.457 117.755 33.369 115.514 33.369C114.355 33.369 113.021 32.9661 112.307 32.3297L113.756 29.0425C114.181 29.4029 114.78 29.6575 115.302 29.6575C115.823 29.6575 116.152 29.4878 116.383 29.1908L111.939 17.4417H116.422L118.605 23.6557L120.827 17.4417H124.962Z" fill="#298BFF"/>
<path d="M30.2486 4.73956L29.556 22.7163L24.0895 22.6988L24.7817 4.72168L30.2486 4.73956Z" fill="#034DA5"/>
<path d="M24.7817 4.72169L24.0895 22.6988L18.6216 22.6813L19.3138 4.70416L24.7817 4.72169Z" fill="#034DA5"/>
<path d="M16.3896 5.71186L15.697 23.689L12.836 20.3734L13.5283 2.39624L16.3896 5.71186Z" fill="url(#paint0_linear)"/>
<path d="M20.9192 6.56429L20.2269 24.5414L18.6216 22.6813L19.3138 4.70416L20.9192 6.56429Z" fill="#808080"/>
<path d="M30.2486 4.73953L29.556 22.7163L26.9365 25.9976L27.6287 8.02079L30.2486 4.73953Z" fill="#AEAEAE"/>
<path d="M25.0079 11.3024L24.3156 29.2792L22.7096 27.4184L23.4022 9.44122L25.0079 11.3024Z" fill="#808080"/>
<path d="M27.6287 8.02078L26.9364 25.9976L24.3155 29.2792L25.0078 11.3024L27.6287 8.02078Z" fill="#AEAEAE"/>
<path d="M20.9192 6.5643L20.2269 24.5414L6.56735 30.0538L7.25962 12.0767L20.9192 6.5643Z" fill="#0354B4"/>
<path d="M35.8762 2.46848L35.1839 20.4453L26.7005 31.0692L27.3928 13.0921L35.8762 2.46848Z" fill="url(#paint1_linear)"/>
<path d="M23.4021 9.44122L22.7095 27.4184L9.04993 32.9307L9.74254 14.9536L23.4021 9.44122Z" fill="#B4B4B4"/>
<path d="M21.1495 11.1415L20.4569 29.1186L18.2309 31.9062L18.9235 13.9294L21.1495 11.1415Z" fill="#0351AE"/>
<path d="M39.0556 14.9448L38.363 32.922L35.8804 30.045L36.573 12.0679L39.0556 14.9448Z" fill="#023C80"/>
<path d="M24.0105 14.4571L23.3182 32.4342L20.4568 29.1186L21.1494 11.1415L24.0105 14.4571Z" fill="#023C80"/>
<path d="M27.3928 13.0921L26.7006 31.0692L23.3182 32.4342L24.0105 14.4571L27.3928 13.0921Z" fill="#0354B4"/>
<path d="M9.74256 14.9536L9.04995 32.9308L6.56735 30.0538L7.25961 12.0767L9.74256 14.9536Z" fill="#808080"/>
<path d="M36.573 12.0679L35.8804 30.045L22.2198 35.5577L22.9124 17.5809L36.573 12.0679Z" fill="#0354B4"/>
<path d="M22.9124 17.5809L22.2198 35.5577L20.6148 33.6975L21.3071 15.7204L22.9124 17.5809Z" fill="#023C80"/>
<path d="M18.9235 13.9294L18.2309 31.9062L7.95187 36.0546L8.64414 18.0774L18.9235 13.9294Z" fill="url(#paint2_linear)"/>
<path d="M21.3071 15.7204L20.6148 33.6975L17.995 36.9788L18.6872 19.0017L21.3071 15.7204Z" fill="#0351AE"/>
<path d="M39.0557 14.9448L38.3634 32.922L24.7028 38.4347L25.3951 20.4575L39.0557 14.9448Z" fill="#B4B4B4"/>
<path d="M43.5851 15.7976L42.8929 33.7747L29.2323 39.2874L29.9249 21.3103L43.5851 15.7976Z" fill="url(#paint3_linear)"/>
<path d="M27.0011 22.3187L26.3088 40.2955L24.7028 38.4347L25.3951 20.4575L27.0011 22.3187Z" fill="#023C80"/>
<path d="M27.001 22.3187L26.3087 40.2955L20.8419 40.278L21.5342 22.3008L27.001 22.3187Z" fill="#A5A5A5"/>
<path d="M18.6872 19.0017L17.995 36.9788L15.3751 40.2601L16.0674 22.2829L18.6872 19.0017Z" fill="#0351AE"/>
<path d="M21.5342 22.3008L20.842 40.278L15.3751 40.2601L16.0674 22.283L21.5342 22.3008Z" fill="#A5A5A5"/>
<path d="M19.3138 4.70416L24.7817 4.72169L30.2486 4.73958L27.6287 8.02083L25.0078 11.3024L23.4021 9.44126L9.74256 14.9536L7.25961 12.0766L20.9192 6.56429L19.3138 4.70416Z" fill="#F8F9FD"/>
<path d="M8.64414 18.0774L7.95188 36.0546L2.03781 29.2014L2.73007 11.2242L8.64414 18.0774Z" fill="url(#paint4_linear)"/>
<path d="M21.3071 15.7205L22.9124 17.5809L36.573 12.0679L39.0556 14.9448L25.395 20.4576L27.0011 22.3187L21.5342 22.3008L16.0674 22.283L18.6872 19.0017L21.3071 15.7205Z" fill="#F8F9FD"/>
<path d="M32.7866 24.6266L32.0943 42.6038L9.7471 42.5312L10.4397 24.554L32.7866 24.6266Z" fill="url(#paint5_linear)"/>
<path d="M43.5851 15.7976L37.6707 8.94437L27.3931 13.0921L35.8762 2.46847L13.5282 2.39624L16.3896 5.71186L2.73007 11.2242L8.64414 18.0774L18.9231 13.9294L10.4397 24.554L32.7866 24.6266L29.9249 21.3103L43.5851 15.7976ZM9.74256 14.9536L7.25997 12.0766L20.9195 6.56425L19.3142 4.70413L24.7821 4.72166L30.2489 4.73954L27.629 8.0208L25.0081 11.3024L23.4021 9.44158L9.74256 14.9536ZM21.5342 22.3008L16.0674 22.2829L18.6872 19.0017L21.3071 15.7204L22.9124 17.5805L36.573 12.0678L39.0556 14.9448L25.395 20.4575L27.001 22.3183L21.5342 22.3008Z" fill="url(#paint6_linear)"/>
<defs>
<linearGradient id="paint0_linear" x1="9.91143" y1="17.2707" x2="19.3042" y2="8.80354" gradientUnits="userSpaceOnUse">
<stop stop-color="#F8F9FD"/>
<stop offset="1" stop-color="#6678FD"/>
</linearGradient>
<linearGradient id="paint1_linear" x1="35.5885" y1="19.8892" x2="26.9954" y2="13.6386" gradientUnits="userSpaceOnUse">
<stop stop-color="#F8F9FD"/>
<stop offset="0.905" stop-color="#53A2FD"/>
</linearGradient>
<linearGradient id="paint2_linear" x1="15.9554" y1="33.7622" x2="10.9307" y2="16.2185" gradientUnits="userSpaceOnUse">
<stop stop-color="#F8F9FD"/>
<stop offset="0.6983" stop-color="#5C5CCC"/>
</linearGradient>
<linearGradient id="paint3_linear" x1="39.3484" y1="35.6097" x2="33.4812" y2="19.4708" gradientUnits="userSpaceOnUse">
<stop stop-color="#F8F9FD"/>
<stop offset="0.6983" stop-color="#4AB6FD"/>
</linearGradient>
<linearGradient id="paint4_linear" x1="0.602094" y1="27.9013" x2="10.0699" y2="19.3664" gradientUnits="userSpaceOnUse">
<stop stop-color="#F8F9FD"/>
<stop offset="0.6983" stop-color="#8175FC"/>
</linearGradient>
<linearGradient id="paint5_linear" x1="21.2669" y1="42.6036" x2="21.2669" y2="24.5541" gradientUnits="userSpaceOnUse">
<stop stop-color="#F8F9FD"/>
<stop offset="0.6983" stop-color="#5E88FD"/>
</linearGradient>
<linearGradient id="paint6_linear" x1="2.7301" y1="13.5114" x2="43.5853" y2="13.5114" gradientUnits="userSpaceOnUse">
<stop stop-color="#7555FD"/>
<stop offset="1" stop-color="#42C9FD"/>
</linearGradient>
</defs>
</svg>
