<svg width="94" height="32" viewBox="0 0 94 32" fill="none" xmlns="http://www.w3.org/2000/svg">
<path d="M41.4336 20.0459L42.5436 17.2899C43.5074 17.9149 44.7927 18.3154 45.9176 18.3154C46.8962 18.3154 47.2465 18.091 47.2465 17.7066C47.2465 16.2964 41.5941 17.4343 41.5941 13.2519C41.5941 11.1688 43.186 9.47037 46.3557 9.47037C47.7287 9.47037 49.1454 9.79093 50.2119 10.4477L49.1749 13.1878C48.167 12.627 47.2176 12.3546 46.3268 12.3546C45.319 12.3546 44.9979 12.6752 44.9979 13.0596C44.9979 14.4057 50.6502 13.284 50.6502 17.4181C50.6502 19.4692 49.0581 21.1997 45.8887 21.1997C44.1795 21.1997 42.456 20.735 41.4336 20.0459Z" fill="#298BFF"/>
<path d="M60.4945 17.402H54.9443C55.178 18.0749 55.7329 18.4275 56.551 18.4275C57.2813 18.4275 57.6902 18.2193 58.2159 17.7866L59.9394 19.6936C59.165 20.6229 58.0405 21.1035 56.4483 21.1035C53.5127 21.1035 51.6138 19.1645 51.6138 16.5529C51.6138 13.893 53.5562 12.0182 56.1416 12.0182C58.5077 12.0182 60.538 13.5886 60.538 16.5529C60.5383 16.8091 60.5091 17.1455 60.4945 17.402ZM54.8859 15.6553H57.4564C57.3251 14.9183 56.8432 14.4857 56.171 14.4857C55.4845 14.4857 55.0172 14.9183 54.8859 15.6553Z" fill="#298BFF"/>
<path d="M62.0428 9.05368H65.3439V20.9433H62.0428V9.05368Z" fill="#298BFF"/>
<path d="M67.272 9.05368H70.5728V20.9433H67.272V9.05368Z" fill="#298BFF"/>
<path d="M72.1647 9.63039C72.1647 8.58897 72.939 7.78757 74.1511 7.78757C75.3633 7.78757 76.1374 8.52459 76.1374 9.56628C76.1374 10.6718 75.3633 11.4732 74.1511 11.4732C72.939 11.4732 72.1647 10.6721 72.1647 9.63039ZM72.5006 12.1782H75.8014V20.9432H72.5006V12.1782Z" fill="#298BFF"/>
<path d="M81.2936 12.659H83.0316V15.303H81.3957V20.9432H78.0947V15.303H76.9993V12.659H78.0947V12.6111C78.0947 10.3518 79.3801 8.89362 81.6587 8.89362C82.3598 8.89362 83.1338 9.03773 83.6157 9.32624L82.8271 11.842C82.6081 11.7299 82.3452 11.6337 82.0825 11.6337C81.6149 11.6337 81.2938 11.9381 81.2938 12.6434V12.659H81.2936Z" fill="#298BFF"/>
<path d="M93.4598 12.1782L90.1736 21.1194C89.2972 23.5231 88.012 24.2121 86.3175 24.2121C85.4413 24.2121 84.4334 23.9077 83.8932 23.4269L84.9886 20.9432C85.3099 21.2156 85.7629 21.4079 86.1572 21.4079C86.5515 21.4079 86.7996 21.2797 86.9748 21.0553L83.6156 12.1782H87.004L88.6545 16.8732L90.3342 12.1782H93.4598Z" fill="#298BFF"/>
<path d="M21.8651 2.58099L21.3415 16.1634L17.2094 16.1502L17.7326 2.56747L21.8651 2.58099Z" fill="#034DA5"/>
<path d="M17.7327 2.56748L17.2094 16.1502L13.0762 16.137L13.5995 2.55423L17.7327 2.56748Z" fill="#034DA5"/>
<path d="M11.389 3.31562L10.8654 16.8983L8.70276 14.3932L9.22604 0.810486L11.389 3.31562Z" fill="url(#paint0_linear)"/>
<path d="M14.8129 3.95966L14.2896 17.5424L13.0762 16.137L13.5995 2.55423L14.8129 3.95966Z" fill="#808080"/>
<path d="M21.8651 2.58096L21.3415 16.1634L19.3615 18.6426L19.8847 5.06013L21.8651 2.58096Z" fill="#AEAEAE"/>
<path d="M17.9036 7.53959L17.3803 21.122L16.1663 19.7161L16.6898 6.13336L17.9036 7.53959Z" fill="#808080"/>
<path d="M19.8847 5.06015L19.3614 18.6426L17.3802 21.1221L17.9035 7.53959L19.8847 5.06015Z" fill="#AEAEAE"/>
<path d="M14.813 3.95969L14.2897 17.5424L3.96436 21.7073L4.48764 8.12458L14.813 3.95969Z" fill="#0354B4"/>
<path d="M26.119 0.865051L25.5957 14.4475L19.1831 22.4745L19.7064 8.89176L26.119 0.865051Z" fill="url(#paint1_linear)"/>
<path d="M16.6898 6.13336L16.1663 19.7161L5.84094 23.881L6.36449 10.2983L16.6898 6.13336Z" fill="#B4B4B4"/>
<path d="M14.9871 7.418L14.4635 21.0007L12.7809 23.1069L13.3044 9.52442L14.9871 7.418Z" fill="#0351AE"/>
<path d="M28.5223 10.2916L27.9988 23.8744L26.1222 21.7006L26.6457 8.11792L28.5223 10.2916Z" fill="#023C80"/>
<path d="M17.1496 9.92313L16.6263 23.5059L14.4634 21.0007L14.9869 7.418L17.1496 9.92313Z" fill="#023C80"/>
<path d="M19.7065 8.89178L19.1832 22.4745L16.6265 23.5059L17.1497 9.92314L19.7065 8.89178Z" fill="#0354B4"/>
<path d="M6.36451 10.2983L5.84096 23.881L3.96436 21.7073L4.48764 8.12457L6.36451 10.2983Z" fill="#808080"/>
<path d="M26.6457 8.11792L26.1221 21.7006L15.796 25.8658L16.3196 12.2833L26.6457 8.11792Z" fill="#0354B4"/>
<path d="M16.3196 12.2833L15.7961 25.8658L14.5829 24.4604L15.1062 10.8776L16.3196 12.2833Z" fill="#023C80"/>
<path d="M13.3044 9.52441L12.7808 23.1069L5.01086 26.2412L5.53415 12.6585L13.3044 9.52441Z" fill="url(#paint2_linear)"/>
<path d="M15.1062 10.8776L14.5829 24.4603L12.6025 26.9395L13.1258 13.3568L15.1062 10.8776Z" fill="#0351AE"/>
<path d="M28.5224 10.2917L27.9991 23.8744L17.673 28.0395L18.1963 14.4568L28.5224 10.2917Z" fill="#B4B4B4"/>
<path d="M31.9462 10.9359L31.4229 24.5187L21.0968 28.6838L21.6204 15.1011L31.9462 10.9359Z" fill="url(#paint3_linear)"/>
<path d="M19.4103 15.863L18.887 29.4455L17.673 28.0395L18.1963 14.4568L19.4103 15.863Z" fill="#023C80"/>
<path d="M19.4102 15.863L18.8869 29.4455L14.7545 29.4322L15.2778 15.8495L19.4102 15.863Z" fill="#A5A5A5"/>
<path d="M13.1258 13.3568L12.6026 26.9395L10.6222 29.4187L11.1455 15.836L13.1258 13.3568Z" fill="#0351AE"/>
<path d="M15.2779 15.8495L14.7546 29.4322L10.6222 29.4187L11.1455 15.836L15.2779 15.8495Z" fill="#A5A5A5"/>
<path d="M13.5994 2.55423L17.7326 2.56748L21.865 2.58099L19.8847 5.06016L17.9035 7.5396L16.6898 6.13337L6.36442 10.2983L4.48755 8.12455L14.8129 3.95966L13.5994 2.55423Z" fill="#F8F9FD"/>
<path d="M5.53417 12.6585L5.01088 26.2412L0.540405 21.0633L1.06369 7.48053L5.53417 12.6585Z" fill="url(#paint4_linear)"/>
<path d="M15.1061 10.8776L16.3196 12.2833L26.6457 8.11792L28.5223 10.2916L18.1962 14.4568L19.4102 15.863L15.2778 15.8495L11.1454 15.836L13.1257 13.3568L15.1061 10.8776Z" fill="#F8F9FD"/>
<path d="M23.7836 17.6068L23.2603 31.1895L6.36792 31.1347L6.89147 17.5519L23.7836 17.6068Z" fill="url(#paint5_linear)"/>
<path d="M31.9463 10.9359L27.4755 5.75796L19.7067 8.89176L26.119 0.865061L9.22612 0.810486L11.389 3.31562L1.06372 7.48051L5.5342 12.6585L13.3041 9.52441L6.8915 17.5519L23.7836 17.6067L21.6204 15.1011L31.9463 10.9359ZM6.3645 10.2983L4.48789 8.12454L14.8132 3.95965L13.5997 2.55422L17.7329 2.56747L21.8654 2.58098L19.885 5.06015L17.9038 7.53959L16.6898 6.13363L6.3645 10.2983ZM15.2779 15.8495L11.1454 15.836L13.1258 13.3568L15.1062 10.8776L16.3197 12.2831L26.6458 8.11792L28.5224 10.2916L18.1963 14.4568L19.4103 15.8627L15.2779 15.8495Z" fill="url(#paint6_linear)"/>
<defs>
<linearGradient id="paint0_linear" x1="6.49206" y1="12.049" x2="13.5891" y2="5.64829" gradientUnits="userSpaceOnUse">
<stop stop-color="#F8F9FD"/>
<stop offset="1" stop-color="#6678FD"/>
</linearGradient>
<linearGradient id="paint1_linear" x1="25.9015" y1="14.0274" x2="19.408" y2="9.30187" gradientUnits="userSpaceOnUse">
<stop stop-color="#F8F9FD"/>
<stop offset="0.905" stop-color="#53A2FD"/>
</linearGradient>
<linearGradient id="paint2_linear" x1="11.0608" y1="24.5092" x2="7.2658" y2="11.253" gradientUnits="userSpaceOnUse">
<stop stop-color="#F8F9FD"/>
<stop offset="0.6983" stop-color="#5C5CCC"/>
</linearGradient>
<linearGradient id="paint3_linear" x1="28.7437" y1="25.9051" x2="24.3122" y2="13.7099" gradientUnits="userSpaceOnUse">
<stop stop-color="#F8F9FD"/>
<stop offset="0.6983" stop-color="#4AB6FD"/>
</linearGradient>
<linearGradient id="paint4_linear" x1="-0.544862" y1="20.081" x2="6.60896" y2="13.6291" gradientUnits="userSpaceOnUse">
<stop stop-color="#F8F9FD"/>
<stop offset="0.6983" stop-color="#8175FC"/>
</linearGradient>
<linearGradient id="paint5_linear" x1="15.0758" y1="31.1894" x2="15.0758" y2="17.552" gradientUnits="userSpaceOnUse">
<stop stop-color="#F8F9FD"/>
<stop offset="0.6983" stop-color="#5E88FD"/>
</linearGradient>
<linearGradient id="paint6_linear" x1="1.06374" y1="9.20858" x2="31.9464" y2="9.20858" gradientUnits="userSpaceOnUse">
<stop stop-color="#7555FD"/>
<stop offset="1" stop-color="#42C9FD"/>
</linearGradient>
</defs>
</svg>
