<svg width="55" height="55" viewBox="0 0 55 55" fill="none" xmlns="http://www.w3.org/2000/svg">
<g clip-path="url(#clip0)">
<path d="M49.8397 9.23723V48.7639H15.4687V0.64447H41.247L49.8397 9.23723Z" fill="white"/>
<path d="M41.2471 9.23724H49.8399V10.9558H41.2471V9.23724Z" fill="#0E3666"/>
<path d="M15.4687 47.0453H49.8397V48.7639H15.4687V47.0453Z" fill="#0E3666"/>
<path d="M49.8399 9.23723H41.2471V0.64447" fill="#3B48A5" fill-opacity="0.56"/>
<path d="M21.4836 22.9857H26.6393V31.5784H21.4836V22.9857Z" fill="white"/>
<path d="M24.9207 22.9857H26.6393V31.5784H24.9207V22.9857Z" fill="#0E3666"/>
<path d="M38.6691 19.5486H43.8248V31.5784H38.6691V19.5486Z" fill="#3B48A5" fill-opacity="0.56"/>
<path d="M42.1062 19.5486H43.8248V31.5784H42.1062V19.5486Z" fill="#C5CAD0"/>
<path d="M30.0764 16.1115H35.2321V31.5784H30.0764V16.1115Z" fill="#3141B4"/>
<path d="M33.5134 16.1115H35.232V31.5784H33.5134V16.1115Z" fill="#3B48A5" fill-opacity="0.56"/>
<path d="M15.4723 38.8886C16.896 38.8886 18.185 39.4656 19.1179 40.3986L22.7635 36.7531C20.8975 34.8871 18.3196 33.7329 15.4723 33.7329C9.77758 33.7329 5.16101 38.3495 5.16101 44.0442H10.3167C10.3166 41.1968 12.6249 38.8886 15.4723 38.8886Z" fill="#3B48A5" fill-opacity="0.56"/>
<path d="M25.7828 44.0442C25.7828 41.1968 24.6287 38.619 22.7627 36.7531L19.1171 40.3986C20.05 41.3316 20.6272 42.6205 20.6272 44.0442C20.6272 46.8916 18.3189 49.1999 15.4715 49.1999V54.3555C21.1662 54.3555 25.7828 49.739 25.7828 44.0442Z" fill="#3141B4"/>
<path d="M10.3157 44.0443H5.16003C5.16003 49.739 9.7766 54.3555 15.4713 54.3555V49.1999C12.624 49.1999 10.3157 46.8917 10.3157 44.0443Z" fill="white"/>
<path d="M5.19597 43.1849C5.17255 43.4683 5.1601 43.7547 5.1601 44.0442C5.1601 49.7381 9.77527 54.3541 15.4688 54.3555V52.637C10.0646 52.6356 5.63259 48.4767 5.19597 43.1849Z" fill="#0E3666"/>
<path d="M25.7468 43.1849C25.3101 48.4775 20.8768 52.637 15.4714 52.637C15.4705 52.637 15.4697 52.6369 15.4688 52.6369V54.3554H15.4714C21.1661 54.3554 25.7827 49.7389 25.7827 44.0441C25.7828 43.7547 25.7702 43.4683 25.7468 43.1849Z" fill="#3B48A5" fill-opacity="0.56"/>
<path d="M50.4843 8.9703L41.514 0H14.8244V33.108C9.08337 33.4441 4.51556 38.2204 4.51556 44.0441C4.51556 50.0852 9.4303 54.9999 15.4713 54.9999C19.5648 54.9999 23.1405 52.7429 25.021 49.4083H50.4843V8.9703ZM41.8916 2.20028L48.284 8.59276H41.8915V2.20028H41.8916ZM15.4713 34.3774C17.905 34.3774 20.1313 35.2818 21.8326 36.7716L19.091 39.5132C16.8161 37.693 13.4775 37.8355 11.3701 39.9429C10.4032 40.9098 9.85113 42.136 9.71107 43.3998H5.8265C6.15936 38.3688 10.3577 34.3774 15.4713 34.3774ZM14.8244 48.507C13.8934 48.3732 12.9964 47.9489 12.2816 47.2341C10.5227 45.4751 10.5227 42.6132 12.2815 40.8543C12.9963 40.1395 13.8933 39.7152 14.8244 39.5814V48.507ZM16.1133 48.5076V39.5807C17.0463 39.7137 17.9452 40.1382 18.6614 40.8543C20.4202 42.6131 20.4202 45.4751 18.6614 47.2341C17.9452 47.9502 17.0462 48.3747 16.1133 48.5076ZM5.8265 44.6887H9.71118C9.85124 45.9524 10.4033 47.1787 11.3702 48.1456C12.337 49.1125 13.5633 49.6645 14.827 49.8046V53.6891C10.009 53.3704 6.14518 49.5064 5.8265 44.6887ZM16.1158 53.6891V49.8046C17.3796 49.6645 18.6058 49.1125 19.5727 48.1456H19.5728C21.68 46.0381 21.8227 42.6997 20.0024 40.4245L22.7439 37.683C24.2338 39.3843 25.1382 41.6104 25.1382 44.0442C25.1382 49.1579 21.1467 53.3562 16.1158 53.6891ZM25.6405 48.1195C26.1474 46.8591 26.4271 45.4837 26.4271 44.0442C26.4271 38.2187 21.8566 33.4413 16.1133 33.1078V1.28891H40.6027V9.88167H49.1954V48.1195H25.6405Z" fill="#3141B4"/>
<path d="M20.6245 6.87421H37.81V8.16312H20.6245V6.87421Z" fill="#3141B4"/>
<path d="M20.6245 10.3113H34.3729V11.6002H20.6245V10.3113Z" fill="#3141B4"/>
<path d="M44.4695 18.9041H38.0249V30.934H35.8767V15.467H29.4321V30.934H27.2839V22.3412H20.8394V32.2229H44.4695V18.9041ZM25.995 30.934H22.1283V23.6301H25.995V30.934ZM30.721 16.7559H34.5878V30.934H30.721V16.7559ZM43.1805 30.934H39.3138V20.193H43.1805V30.934Z" fill="#3141B4"/>
<path d="M27.4987 36.0896H44.6842V37.3785H27.4987V36.0896Z" fill="#3141B4"/>
<path d="M30.9359 39.5267H44.6843V40.8156H30.9359V39.5267Z" fill="#3141B4"/>
</g>
<defs>
<clipPath id="clip0">
<rect width="55" height="55" fill="white"/>
</clipPath>
</defs>
</svg>
