<svg width="25" height="25" viewBox="0 0 25 25" fill="none" xmlns="http://www.w3.org/2000/svg">
<circle cx="12.5" cy="12.5" r="12.5" fill="#00FFC2"/>
<path fill-rule="evenodd" clip-rule="evenodd" d="M18.7114 8.38071C18.4155 8.08485 17.9359 8.08485 17.64 8.38071L10.1276 15.8932L6.91617 12.6818C6.62032 12.386 6.14065 12.386 5.84479 12.6818L5.30832 13.2183C5.01246 13.5141 5.01246 13.9938 5.30832 14.2897L9.0608 18.0422C9.10768 18.0891 9.15688 18.1322 9.20802 18.1716L9.60072 18.5644C9.89658 18.8602 10.3762 18.8602 10.6721 18.5644L11.0989 18.1376C11.1349 18.1077 11.1698 18.0759 11.2036 18.0422L11.74 17.5057L11.7354 17.501L19.2479 9.98856C19.5437 9.69271 19.5437 9.21304 19.2479 8.91719L18.7114 8.38071Z" fill="white"/>
</svg>
