<svg width="16" height="16" viewBox="0 0 16 16" fill="none" xmlns="http://www.w3.org/2000/svg">
<path fill-rule="evenodd" clip-rule="evenodd" d="M10.4521 4.7666H13.7521C13.9422 4.7666 14.1025 4.90106 14.1425 5.07959C14.1515 5.11779 14.1547 5.15705 14.1521 5.19596V8.4666C14.1521 8.6866 13.9721 8.8666 13.7521 8.8666C13.5321 8.8666 13.3521 8.6866 13.3521 8.4666V6.13533L9.47878 10.02C9.47544 10.0233 9.47211 10.025 9.46878 10.0267C9.46545 10.0283 9.46211 10.03 9.45878 10.0333C9.45211 10.0333 9.45211 10.04 9.45211 10.04C9.44544 10.0467 9.43211 10.0533 9.41878 10.06C9.39211 10.0867 9.35878 10.1133 9.32544 10.1267C9.31878 10.13 9.31378 10.13 9.30878 10.13C9.30378 10.13 9.29878 10.13 9.29211 10.1333C9.25211 10.1467 9.21211 10.16 9.17211 10.16C9.05211 10.16 8.95211 10.1133 8.87878 10.0333L6.3388 7.48667L2.6988 11.1133C2.62547 11.1933 2.5188 11.2333 2.4188 11.2333C2.3188 11.2333 2.21214 11.1933 2.1388 11.12C1.98547 10.96 1.98547 10.7067 2.1388 10.5533L6.02547 6.66665C6.03132 6.6608 6.0346 6.65495 6.03757 6.64967C6.04137 6.6429 6.04465 6.63706 6.05214 6.63331C6.21214 6.47998 6.46547 6.47998 6.6188 6.63331L9.16544 9.19333L12.7866 5.5666H10.4521C10.2321 5.5666 10.0521 5.3866 10.0521 5.1666C10.0521 4.9466 10.2321 4.7666 10.4521 4.7666Z" fill="#13B991"/>
</svg>
