<svg width="21" height="21" viewBox="0 0 21 21" fill="none" xmlns="http://www.w3.org/2000/svg">
<path fill-rule="evenodd" clip-rule="evenodd" d="M12.542 4.72364C12.636 4.47967 12.6875 4.2146 12.6875 3.9375C12.6875 2.72938 11.7081 1.75 10.5 1.75C9.29189 1.75 8.3125 2.72938 8.3125 3.9375C8.3125 4.2146 8.36402 4.47967 8.45801 4.72364C6.07925 5.56456 4.375 7.83325 4.375 10.5V13.125L2.625 16.625H4.375H16.625H18.375L16.625 13.125V10.5C16.625 7.83325 14.9208 5.56456 12.542 4.72364ZM12.6875 17.0625C12.6875 18.2706 11.7081 19.25 10.5 19.25C9.29189 19.25 8.3125 18.2706 8.3125 17.0625H12.6875Z" fill="#CBCBCB"/>
</svg>
