<svg width="17" height="17" viewBox="0 0 17 17" fill="none" xmlns="http://www.w3.org/2000/svg">
<path fill-rule="evenodd" clip-rule="evenodd" d="M7.08341 12.75C8.38753 12.75 9.58879 12.3095 10.5465 11.5691L14.3531 15.3757C14.6297 15.6523 15.0782 15.6523 15.3548 15.3757L15.3758 15.3547C15.6524 15.0781 15.6524 14.6296 15.3758 14.353L11.5691 10.5464C12.3096 9.5887 12.7501 8.38744 12.7501 7.08332C12.7501 3.95371 10.213 1.41666 7.08341 1.41666C3.9538 1.41666 1.41675 3.95371 1.41675 7.08332C1.41675 10.213 3.9538 12.75 7.08341 12.75ZM11.8997 7.08295C11.8997 9.74311 9.74321 11.8996 7.08304 11.8996C4.42286 11.8996 2.26637 9.74311 2.26637 7.08295C2.26637 4.42277 4.42286 2.26628 7.08304 2.26628C9.74321 2.26628 11.8997 4.42277 11.8997 7.08295Z" fill="#A2A2A4"/>
</svg>
