<svg width="15" height="15" viewBox="0 0 15 15" fill="none" xmlns="http://www.w3.org/2000/svg">
<path fill-rule="evenodd" clip-rule="evenodd" d="M9.9125 2.5H12.5C12.8438 2.5 13.125 2.78125 13.125 3.125C13.125 3.46875 12.8438 3.75 12.5 3.75H2.5C2.15625 3.75 1.875 3.46875 1.875 3.125C1.875 2.78125 2.15625 2.5 2.5 2.5H5.0875C5.36875 1.425 6.3375 0.625 7.5 0.625C8.6625 0.625 9.63125 1.425 9.9125 2.5ZM3.12501 4.375H11.875C12.05 4.375 12.2125 4.45 12.3312 4.575C12.45 4.7 12.5125 4.86875 12.5 5.04375L11.9562 12.6312C11.8875 13.6125 11.0687 14.375 10.0875 14.375H4.91251C3.93751 14.375 3.11251 13.6125 3.04376 12.6312L2.50001 5.04375C2.48751 4.86875 2.55001 4.7 2.66876 4.575C2.78751 4.45 2.95001 4.375 3.12501 4.375Z" fill="white"/>
</svg>
