<svg width="15" height="15" viewBox="0 0 15 15" fill="none" xmlns="http://www.w3.org/2000/svg">
<path fill-rule="evenodd" clip-rule="evenodd" d="M9.70575 0.647254C9.60198 0.436964 9.34669 0.351192 9.13639 0.452873L6.50677 1.74356L5.95861 1.2539C5.7919 1.11555 5.21015 0.683223 4.71072 0.929475L3.3155 1.61429C2.81399 1.85986 2.80016 2.58341 2.80777 2.79715L2.82964 3.5485L0.641262 4.62263C0.430979 4.7264 0.343819 4.98095 0.446888 5.19193C0.520902 5.34204 0.671699 5.42988 0.828722 5.42988C0.891672 5.42988 0.956003 5.41536 1.01618 5.38631L9.51131 1.21655C9.72161 1.11278 9.80881 0.858231 9.70575 0.647254ZM3.66785 3.13705L3.65721 2.77087C3.65329 2.64195 3.67571 2.48034 3.68546 2.41004C3.68774 2.39358 3.68933 2.38212 3.68972 2.37727L5.0386 1.7056C5.1057 1.70629 5.29316 1.8066 5.40383 1.89721L5.68399 2.14749L3.66785 3.13705ZM11.2081 7.32941C10.9792 7.30448 10.7654 7.47462 10.7419 7.70844L10.1339 13.6062C10.1193 13.6837 10.0516 13.7403 9.97272 13.7403H4.34964C4.27009 13.7403 4.20229 13.6837 4.19261 13.6414L3.48705 6.80779H4.82624C5.06074 6.80779 5.25096 6.6176 5.25096 6.38307C5.25096 6.14862 5.06074 5.95837 4.82624 5.95837H3.30304C3.10936 5.95837 2.92467 6.04069 2.79531 6.18389C2.66596 6.32775 2.60301 6.52007 2.62307 6.71238L3.35216 13.7638C3.44278 14.2425 3.86196 14.5898 4.34964 14.5898H9.97272C10.4597 14.5898 10.8789 14.2425 10.9744 13.7286L11.5872 7.79563C11.6114 7.56252 11.4419 7.35356 11.2081 7.32941ZM5.52351 7.57633C5.28901 7.59085 5.11123 7.79351 5.12645 8.02733L5.41006 12.4682C5.42459 12.693 5.61135 12.866 5.8334 12.866C5.84308 12.866 5.85207 12.866 5.86107 12.8653C6.09558 12.8508 6.2733 12.6481 6.25815 12.4143L5.97451 7.97335C5.95929 7.73819 5.73863 7.55416 5.52351 7.57633ZM8.08154 12.4143L8.31394 8.77235C8.32917 8.53782 8.54982 8.3628 8.76494 8.37526C8.99947 8.38978 9.17726 8.5918 9.16203 8.82626L8.92956 12.4682C8.91503 12.693 8.72832 12.866 8.50626 12.866C8.49655 12.866 8.48756 12.866 8.47856 12.8653C8.2441 12.8508 8.06631 12.6488 8.08154 12.4143ZM11.3893 0.829777L14.5963 3.24609L11.3893 5.80393V4.40443C10.6459 4.28455 9.88021 4.31987 9.22861 4.66348C8.843 4.86945 8.56937 5.10256 8.44506 5.51816C8.31918 5.92374 8.36154 6.43223 8.52304 6.90087L8.32053 7.01108C8.00199 6.58134 7.75457 6.05966 7.73304 5.44134C7.72525 5.13317 7.77979 4.81281 7.92556 4.50331C8.06843 4.20353 8.25997 3.95031 8.47176 3.73013C8.89485 3.27834 9.43814 2.94246 10.0058 2.70908C10.4528 2.52863 10.9188 2.42149 11.3893 2.34795V0.829777Z" fill="white"/>
</svg>
